<?xml version="1.0" encoding="utf-8"?>
<!-- Generator: Adobe Illustrator 21.0.2, SVG Export Plug-In . SVG Version: 6.00 Build 0)  -->
<svg version="1.1" id="squiggle-svg" xmlns="http://www.w3.org/2000/svg" xmlns:xlink="http://www.w3.org/1999/xlink" x="0px"
	 y="0px" viewBox="0 0 21.1 4" style="enable-background:new 0 0 21.1 4;" xml:space="preserve">
<style type="text/css">
	.st0{fill:none;stroke:#666666;stroke-linecap:round;}
</style>
<path class="st0" d="M0,3.5c5,0,5-3,10-3s5,3,10,3s5-3,10-3s5,3,10,3"/>
<path d="M-112-1c12-61-30-76-47-59c-12,12-6,30,7,38c7,4,14,6,22,8c8,3,14,10,19,12L-112-1z"/>
<path d="M-110,109c5-76-61-121-95-86c-21,21-10,53,15,64c14,6,30,5,45,7c23,2,20,7,36,15H-110z"/>
</svg>
